<?xml version="1.0" standalone="no"?>
<!DOCTYPE svg PUBLIC "-//W3C//DTD SVG 20010904//EN"
 "http://www.w3.org/TR/2001/REC-SVG-20010904/DTD/svg10.dtd">
<svg version="1.0" xmlns="http://www.w3.org/2000/svg"
 width="462.000000pt" height="462.000000pt" viewBox="0 0 462.000000 462.000000"
 preserveAspectRatio="xMidYMid meet">
<metadata>
Created by potrace 1.16, written by Peter Selinger 2001-2019
</metadata>
<g transform="translate(0.000000,462.000000) scale(0.100000,-0.100000)"
fill="#000000" stroke="none">
<path d="M1419 4581 l-29 -29 0 -671 0 -671 -661 0 -661 0 -29 -29 c-36 -37
-40 -94 -8 -135 l20 -26 670 0 669 0 0 -720 0 -720 -669 0 -670 0 -20 -26
c-32 -41 -28 -98 8 -135 l29 -29 661 0 661 0 0 -666 0 -666 29 -29 c41 -41
101 -41 142 0 l29 29 0 666 0 666 715 0 715 0 0 -660 c0 -699 0 -707 45 -724
40 -15 87 -6 116 23 l29 29 0 666 0 666 676 0 676 0 29 29 c36 37 40 94 8 135
l-20 26 -685 0 -684 0 0 720 0 720 684 0 685 0 20 26 c32 41 28 98 -8 135
l-29 29 -676 0 -676 0 0 671 0 671 -29 29 c-29 29 -76 38 -116 23 -45 -17 -45
-24 -45 -729 l0 -665 -715 0 -715 0 0 671 0 671 -29 29 c-23 23 -38 29 -71 29
-33 0 -48 -6 -71 -29z m1601 -2281 l0 -720 -715 0 -715 0 0 720 0 720 715 0
715 0 0 -720z"/>
</g>
</svg>
